<svg width="513" height="513" viewBox="0 0 513 513" fill="none" xmlns="http://www.w3.org/2000/svg">
<path d="M108.96 108.961C147.968 69.9533 200.874 48.039 256.039 48.039C311.204 48.039 364.109 69.9533 403.117 108.961C442.124 147.968 464.039 200.874 464.039 256.039C464.039 311.204 442.124 364.11 403.117 403.117C364.109 442.125 311.204 464.039 256.039 464.039C200.874 464.039 147.968 442.125 108.96 403.117C69.9529 364.11 48.0387 311.204 48.0387 256.039C48.0387 200.874 69.9529 147.968 108.96 108.961ZM437.058 437.058C485.067 389.049 512.039 323.934 512.039 256.039C512.039 188.144 485.067 123.029 437.058 75.0197C389.049 27.0104 323.934 0.0390389 256.039 0.0390389C188.143 0.0390389 123.029 27.0104 75.0193 75.0197C27.01 123.029 0.0386835 188.144 0.0386835 256.039C0.0386835 323.934 27.01 389.049 75.0193 437.058C123.029 485.068 188.143 512.039 256.039 512.039C323.934 512.039 389.049 485.068 437.058 437.058ZM141.487 256.039C141.487 269.333 152.235 280.081 165.458 280.01H231.926V346.478C231.926 359.772 242.674 370.52 255.897 370.449C269.12 370.378 279.939 359.701 279.868 346.478V280.01H346.336C359.63 280.01 370.378 269.262 370.307 256.039C370.236 242.816 359.559 231.997 346.336 232.068H279.868V165.6C279.868 152.306 269.12 141.558 255.897 141.629C242.674 141.7 231.856 152.377 231.926 165.6V232.068H165.458C152.165 232.068 141.417 242.816 141.487 256.039Z" fill="#A9A9A9"/>
</svg>
