<svg xmlns="http://www.w3.org/2000/svg" width="40" height="39" fill="none"><path fill="" stroke="#D9D9D9" stroke-width="3" d="M5 4.5h30A3.5 3.5 0 0 1 38.5 8v26a3.5 3.5 0 0 1-3.5 3.5H5A3.5 3.5 0 0 1 1.5 34V8A3.5 3.5 0 0 1 5 4.5Z"/><path fill="#D9D9D9" d="M.863 8.45a5 5 0 0 1 5-5h28.808a5 5 0 0 1 5 5v8.798H.863V8.449Z"/><rect width="5.174" height="10.349" x="17.5" fill="#B4B4B4" rx="2.587"/><rect width="5.174" height="10.349" x="17.5" fill="#B4B4B4" rx="2.587"/><rect width="5.174" height="10.349" x="17.5" fill="#B4B4B4" rx="2.587"/><rect width="5.174" height="10.349" x="30" fill="#B4B4B4" rx="2.587"/><rect width="5.174" height="10.349" x="30" fill="#B4B4B4" rx="2.587"/><rect width="5.174" height="10.349" x="30" fill="#B4B4B4" rx="2.587"/><rect width="5.174" height="10.349" x="5" fill="#B4B4B4" rx="2.587"/><rect width="5.174" height="10.349" x="5" fill="#B4B4B4" rx="2.587"/><rect width="5.174" height="10.349" x="5" fill="#B4B4B4" rx="2.587"/></svg>