<svg width="2512" height="1256" viewBox="0 0 2512 1256" fill="none" xmlns="http://www.w3.org/2000/svg">
<rect width="2512" height="1256" fill="#F0F0F0"/>
<rect x="950" y="315" width="596.987" height="446.217" rx="50" fill="#B0B0B0"/>
<path d="M1291.75 474.436C1307.66 451.462 1341.62 451.462 1357.53 474.436L1473.74 642.29C1492.11 668.819 1473.12 705.059 1440.85 705.059H1208.43C1176.16 705.059 1157.17 668.819 1175.54 642.29L1291.75 474.436Z" fill="white"/>
<path d="M1291.75 474.436C1307.66 451.462 1341.62 451.462 1357.53 474.436L1473.74 642.29C1492.11 668.819 1473.12 705.059 1440.85 705.059H1208.43C1176.16 705.059 1157.17 668.819 1175.54 642.29L1291.75 474.436Z" fill="white"/>
<path d="M1291.75 474.436C1307.66 451.462 1341.62 451.462 1357.53 474.436L1473.74 642.29C1492.11 668.819 1473.12 705.059 1440.85 705.059H1208.43C1176.16 705.059 1157.17 668.819 1175.54 642.29L1291.75 474.436Z" fill="#F0F0F0"/>
<circle cx="1064.98" cy="414.752" r="55.5868" fill="white"/>
<circle cx="1064.98" cy="414.752" r="55.5868" fill="white"/>
<circle cx="1064.98" cy="414.752" r="55.5868" fill="#F0F0F0"/>
<path d="M1094.11 571.923C1108.42 555.92 1133.47 555.92 1147.78 571.923L1213.36 645.252C1234.1 668.444 1217.64 705.249 1186.53 705.249H1055.37C1024.26 705.249 1007.8 668.444 1028.54 645.252L1094.11 571.923Z" fill="white"/>
<path d="M1094.11 571.923C1108.42 555.92 1133.47 555.92 1147.78 571.923L1213.36 645.252C1234.1 668.444 1217.64 705.249 1186.53 705.249H1055.37C1024.26 705.249 1007.8 668.444 1028.54 645.252L1094.11 571.923Z" fill="white"/>
<path d="M1094.11 571.923C1108.42 555.92 1133.47 555.92 1147.78 571.923L1213.36 645.252C1234.1 668.444 1217.64 705.249 1186.53 705.249H1055.37C1024.26 705.249 1007.8 668.444 1028.54 645.252L1094.11 571.923Z" fill="#F0F0F0"/>
<path fill-rule="evenodd" clip-rule="evenodd" d="M1226.16 761.217H1141.3L1139.99 759.294L1160.67 745.25L1527.73 495.997L1546.99 482.922V543.361L1226.16 761.217Z" fill="white"/>
<path fill-rule="evenodd" clip-rule="evenodd" d="M1226.16 761.217H1141.3L1139.99 759.294L1160.67 745.25L1527.73 495.997L1546.99 482.922V543.361L1226.16 761.217Z" fill="white"/>
<path fill-rule="evenodd" clip-rule="evenodd" d="M1226.16 761.217H1141.3L1139.99 759.294L1160.67 745.25L1527.73 495.997L1546.99 482.922V543.361L1226.16 761.217Z" fill="#F0F0F0"/>
<path d="M1606 498.132L1124.37 825.18" stroke="#B0B0B0" stroke-width="50" stroke-linecap="round"/>
<path d="M810.6 923H818.6V993H810.6V923ZM834.799 923H844.499L871.199 974.6L897.599 923H907.399V993H899.899L899.799 933.9L873.399 985.5H868.799L842.199 933.9V993H834.799V923ZM944.847 923H953.047L984.347 993H975.747L948.747 931.2L921.947 993H913.547L944.847 923ZM927.347 967.9H969.847V974.8H927.347V967.9ZM1040.26 937.5C1037.46 934.9 1034.2 932.867 1030.46 931.4C1026.8 929.933 1023 929.2 1019.06 929.2C1015.06 929.2 1011.33 929.967 1007.86 931.5C1004.4 932.967 1001.33 935.033 998.664 937.7C995.997 940.3 993.931 943.333 992.464 946.8C990.997 950.2 990.264 953.9 990.264 957.9C990.264 961.9 990.997 965.633 992.464 969.1C993.931 972.567 995.997 975.633 998.664 978.3C1001.33 980.967 1004.4 983.067 1007.86 984.6C1011.33 986.067 1015.1 986.8 1019.16 986.8C1022.83 986.8 1026.5 986.1 1030.16 984.7C1033.83 983.233 1037.1 981.3 1039.96 978.9L1044.66 984.4C1042.4 986.2 1039.83 987.8 1036.96 989.2C1034.1 990.6 1031.1 991.7 1027.96 992.5C1024.9 993.233 1021.8 993.6 1018.66 993.6C1013.53 993.6 1008.76 992.7 1004.36 990.9C999.964 989.033 996.097 986.467 992.764 983.2C989.431 979.933 986.831 976.133 984.964 971.8C983.097 967.467 982.164 962.833 982.164 957.9C982.164 952.967 983.097 948.367 984.964 944.1C986.897 939.833 989.531 936.067 992.864 932.8C996.264 929.533 1000.2 927 1004.66 925.2C1009.13 923.4 1013.93 922.5 1019.06 922.5C1022.26 922.5 1025.4 922.9 1028.46 923.7C1031.6 924.433 1034.53 925.5 1037.26 926.9C1040.06 928.3 1042.6 930 1044.86 932L1040.26 937.5ZM1037.56 958.8H1044.66V984.4H1037.56V958.8ZM1059.06 923H1106.56V930H1067.06V954H1102.36V960.9H1067.06V986.1H1107.86V993H1059.06V923ZM1138.51 923H1146.81L1190.91 983.6L1188.81 984.3V923H1196.71V993H1188.51L1144.41 932.5L1146.51 931.8V993H1138.51V923ZM1243.1 922.5C1248.17 922.5 1252.9 923.4 1257.3 925.2C1261.77 927 1265.67 929.533 1269 932.8C1272.34 936.067 1274.94 939.833 1276.8 944.1C1278.74 948.367 1279.7 952.967 1279.7 957.9C1279.7 962.833 1278.74 967.467 1276.8 971.8C1274.94 976.133 1272.34 979.933 1269 983.2C1265.67 986.467 1261.77 989.033 1257.3 990.9C1252.9 992.7 1248.17 993.6 1243.1 993.6C1237.97 993.6 1233.17 992.7 1228.7 990.9C1224.3 989.033 1220.44 986.467 1217.1 983.2C1213.77 979.933 1211.14 976.133 1209.2 971.8C1207.34 967.467 1206.4 962.833 1206.4 957.9C1206.4 952.967 1207.34 948.367 1209.2 944.1C1211.14 939.767 1213.77 936 1217.1 932.8C1220.44 929.533 1224.3 927 1228.7 925.2C1233.17 923.4 1237.97 922.5 1243.1 922.5ZM1243.1 929.3C1239.17 929.3 1235.47 930.033 1232 931.5C1228.6 932.967 1225.57 935.033 1222.9 937.7C1220.3 940.3 1218.24 943.333 1216.7 946.8C1215.24 950.267 1214.5 953.967 1214.5 957.9C1214.5 961.9 1215.24 965.633 1216.7 969.1C1218.24 972.567 1220.34 975.633 1223 978.3C1225.67 980.967 1228.7 983.033 1232.1 984.5C1235.57 985.967 1239.24 986.7 1243.1 986.7C1247.04 986.7 1250.7 985.967 1254.1 984.5C1257.57 983.033 1260.6 980.967 1263.2 978.3C1265.8 975.633 1267.84 972.567 1269.3 969.1C1270.77 965.633 1271.5 961.9 1271.5 957.9C1271.5 953.967 1270.77 950.267 1269.3 946.8C1267.84 943.333 1265.8 940.3 1263.2 937.7C1260.6 935.033 1257.57 932.967 1254.1 931.5C1250.7 930.033 1247.04 929.3 1243.1 929.3ZM1279.07 923H1332.77V930H1309.87V993H1301.87V930H1279.07V923ZM1358.65 923H1403.15V930H1366.65V955.8H1399.35V962.7H1366.65V993H1358.65V923ZM1440.09 922.5C1445.16 922.5 1449.89 923.4 1454.29 925.2C1458.76 927 1462.66 929.533 1465.99 932.8C1469.33 936.067 1471.93 939.833 1473.79 944.1C1475.73 948.367 1476.69 952.967 1476.69 957.9C1476.69 962.833 1475.73 967.467 1473.79 971.8C1471.93 976.133 1469.33 979.933 1465.99 983.2C1462.66 986.467 1458.76 989.033 1454.29 990.9C1449.89 992.7 1445.16 993.6 1440.09 993.6C1434.96 993.6 1430.16 992.7 1425.69 990.9C1421.29 989.033 1417.43 986.467 1414.09 983.2C1410.76 979.933 1408.13 976.133 1406.19 971.8C1404.33 967.467 1403.39 962.833 1403.39 957.9C1403.39 952.967 1404.33 948.367 1406.19 944.1C1408.13 939.767 1410.76 936 1414.09 932.8C1417.43 929.533 1421.29 927 1425.69 925.2C1430.16 923.4 1434.96 922.5 1440.09 922.5ZM1440.09 929.3C1436.16 929.3 1432.46 930.033 1428.99 931.5C1425.59 932.967 1422.56 935.033 1419.89 937.7C1417.29 940.3 1415.23 943.333 1413.69 946.8C1412.23 950.267 1411.49 953.967 1411.49 957.9C1411.49 961.9 1412.23 965.633 1413.69 969.1C1415.23 972.567 1417.33 975.633 1419.99 978.3C1422.66 980.967 1425.69 983.033 1429.09 984.5C1432.56 985.967 1436.23 986.7 1440.09 986.7C1444.03 986.7 1447.69 985.967 1451.09 984.5C1454.56 983.033 1457.59 980.967 1460.19 978.3C1462.79 975.633 1464.83 972.567 1466.29 969.1C1467.76 965.633 1468.49 961.9 1468.49 957.9C1468.49 953.967 1467.76 950.267 1466.29 946.8C1464.83 943.333 1462.79 940.3 1460.19 937.7C1457.59 935.033 1454.56 932.967 1451.09 931.5C1447.69 930.033 1444.03 929.3 1440.09 929.3ZM1492.74 964.5C1492.74 971.5 1494.64 976.967 1498.44 980.9C1502.24 984.767 1507.44 986.7 1514.04 986.7C1520.64 986.7 1525.81 984.767 1529.54 980.9C1533.34 977.033 1535.24 971.567 1535.24 964.5V923H1543.14V964.5C1543.14 970.567 1541.98 975.8 1539.64 980.2C1537.38 984.533 1534.04 987.867 1529.64 990.2C1525.31 992.467 1520.11 993.6 1514.04 993.6C1507.98 993.6 1502.74 992.467 1498.34 990.2C1493.94 987.867 1490.58 984.533 1488.24 980.2C1485.91 975.8 1484.74 970.567 1484.74 964.5V923H1492.74V964.5ZM1557.81 923H1566.11L1610.21 983.6L1608.11 984.3V923H1616.01V993H1607.81L1563.71 932.5L1565.81 931.8V993H1557.81V923ZM1660.5 923C1665.63 923 1670.4 923.9 1674.8 925.7C1679.2 927.433 1683 929.9 1686.2 933.1C1689.47 936.233 1692 939.933 1693.8 944.2C1695.67 948.467 1696.6 953.067 1696.6 958C1696.6 963 1695.67 967.6 1693.8 971.8C1692 976 1689.47 979.7 1686.2 982.9C1682.93 986.1 1679.1 988.6 1674.7 990.4C1670.3 992.133 1665.53 993 1660.4 993H1632.3V923H1660.5ZM1660.7 986.1C1664.63 986.1 1668.27 985.4 1671.6 984C1674.93 982.6 1677.87 980.633 1680.4 978.1C1682.93 975.5 1684.9 972.5 1686.3 969.1C1687.77 965.7 1688.5 962.033 1688.5 958.1C1688.5 954.1 1687.77 950.4 1686.3 947C1684.83 943.6 1682.83 940.633 1680.3 938.1C1677.77 935.5 1674.8 933.5 1671.4 932.1C1668 930.7 1664.33 930 1660.4 930H1640.3V986.1H1660.7Z" fill="#B0B0B0"/>
</svg>
