<svg width="427" height="427" viewBox="0 0 427 427" fill="none" xmlns="http://www.w3.org/2000/svg">
<path fill-rule="evenodd" clip-rule="evenodd" d="M213.333 0C95.513 0 0 95.5117 0 213.333C0 331.154 95.513 426.667 213.333 426.667C331.155 426.667 426.667 331.154 426.667 213.333C426.667 95.5117 331.155 0 213.333 0ZM213.333 384C119.228 384 42.6667 307.439 42.6667 213.333C42.6667 119.228 119.228 42.6667 213.333 42.6667C307.44 42.6667 384 119.228 384 213.333C384 307.439 307.44 384 213.333 384ZM240.047 128C240.047 143.468 228.785 154.667 213.55 154.667C197.699 154.667 186.713 143.468 186.713 127.704C186.713 112.554 197.996 101.333 213.55 101.333C228.785 101.333 240.047 112.554 240.047 128ZM192.047 192H234.713V320H192.047V192Z" fill="white"/>
</svg>
